<?xml version="1.0" standalone="no"?>
<!DOCTYPE svg PUBLIC "-//W3C//DTD SVG 20010904//EN"
 "http://www.w3.org/TR/2001/REC-SVG-20010904/DTD/svg10.dtd">
<svg version="1.0" xmlns="http://www.w3.org/2000/svg"
 width="512.000000pt" height="512.000000pt" viewBox="0 0 512.000000 512.000000"
 preserveAspectRatio="xMidYMid meet">

<g transform="translate(0.000000,512.000000) scale(0.100000,-0.100000)"
fill="#000000" stroke="none">
<path d="M532 5109 c-131 -22 -243 -81 -342 -179 -103 -104 -158 -212 -180
-357 -7 -46 -10 -703 -8 -2058 3 -1836 5 -1994 20 -2045 71 -227 245 -395 468
-451 81 -21 4057 -21 4140 0 228 56 413 242 471 471 21 82 21 4058 0 4140 -56
223 -224 397 -451 468 -51 15 -207 17 -2060 18 -1123 1 -2028 -2 -2058 -7z
m2303 -369 c446 -32 886 -130 1056 -236 50 -31 110 -102 163 -193 105 -178
278 -574 326 -745 20 -71 20 -96 20 -1077 0 -1140 7 -1039 -87 -1140 -59 -64
-210 -191 -278 -234 -103 -65 -121 -68 -437 -73 l-288 -4 0 -139 0 -139 -745
0 -745 0 0 140 0 140 -257 0 c-361 0 -389 8 -570 144 -134 101 -220 187 -249
249 l-24 52 0 1006 0 1007 25 87 c36 122 76 225 162 409 142 309 245 461 349
522 165 97 600 192 1014 223 155 12 406 12 565 1z m-1225 -4025 l0 -135 950 0
949 0 3 133 3 132 123 3 122 3 0 -136 0 -135 158 0 c130 0 163 -3 191 -18 101
-51 101 -173 0 -225 -32 -16 -122 -17 -1559 -15 -1452 3 -1526 4 -1552 21 -30
20 -58 73 -58 109 0 37 34 90 71 110 28 15 58 18 191 18 l158 0 0 128 c0 71 3
132 7 135 3 4 60 7 125 7 l118 0 0 -135z"/>
<path d="M1592 4166 c4 -80 18 -110 72 -150 27 -21 37 -21 887 -24 852 -2 859
-2 900 18 53 27 78 82 79 168 l0 62 -971 0 -971 0 4 -74z"/>
<path d="M1282 3650 c-44 -27 -72 -76 -72 -128 0 -24 70 -339 155 -700 172
-726 166 -709 260 -767 l48 -30 880 -3 c864 -2 881 -2 922 18 47 23 100 71
120 110 20 38 318 1327 318 1375 0 52 -26 101 -66 125 -31 19 -60 20 -1282 20
-1230 0 -1251 0 -1283 -20z"/>
<path d="M3342 1710 c-62 -15 -112 -82 -112 -150 0 -53 36 -109 83 -131 56
-25 95 -24 147 4 51 27 80 75 80 133 0 94 -101 168 -198 144z"/>
<path d="M1663 1670 c-69 -42 -90 -119 -53 -195 38 -79 121 -105 207 -65 106
48 112 198 11 260 -44 26 -122 27 -165 0z"/>
</g>
</svg>
